<svg width="24" height="21" viewBox="0 0 24 21" fill="none" xmlns="http://www.w3.org/2000/svg">
<path d="M6.66661 10.6649L7.06388 12.3735C7.19833 12.9517 7.26555 13.2408 7.3844 13.5059C7.48986 13.7411 7.62518 13.9617 7.78704 14.1623C7.96945 14.3884 8.19669 14.5793 8.65119 14.9612L9.99412 16.0897L8.28559 16.4869C7.70737 16.6214 7.41825 16.6886 7.1532 16.8075C6.91801 16.9129 6.69738 17.0483 6.49678 17.2101C6.27072 17.3925 6.07976 17.6198 5.69785 18.0743L4.56939 19.4172L4.17212 17.7087C4.03767 17.1304 3.97045 16.8413 3.8516 16.5763C3.74614 16.3411 3.61081 16.1205 3.44896 15.9199C3.26655 15.6938 3.0393 15.5028 2.58481 15.1209L1.24188 13.9925L2.9504 13.5952C3.52863 13.4607 3.81774 13.3935 4.0828 13.2747C4.31799 13.1692 4.53862 13.0339 4.73922 12.872C4.96528 12.6896 5.15624 12.4624 5.53815 12.0079L6.66661 10.6649Z" stroke="#7BB20A" stroke-width="2" stroke-linecap="round" stroke-linejoin="round"/>
<path d="M17.4959 1.94848L17.928 5.20318C18.0314 5.98194 18.0831 6.37132 18.2244 6.72231C18.3497 7.03338 18.5263 7.32124 18.7468 7.57392C18.9956 7.85902 19.3193 8.08158 19.9666 8.52668L22.672 10.3869L19.4173 10.819C18.6385 10.9224 18.2492 10.9741 17.8982 11.1155C17.5871 11.2408 17.2992 11.4174 17.0466 11.6379C16.7615 11.8867 16.5389 12.2103 16.0938 12.8577L14.2335 15.5631L13.8014 12.3084C13.6981 11.5296 13.6464 11.1402 13.505 10.7892C13.3797 10.4782 13.2031 10.1903 12.9826 9.93762C12.7338 9.65253 12.4102 9.42997 11.7628 8.98486L9.05741 7.1246L12.3121 6.69251C13.0909 6.58912 13.4803 6.53743 13.8312 6.39605C14.1423 6.27075 14.4302 6.09417 14.6829 5.87367C14.968 5.62488 15.1905 5.30122 15.6356 4.65389L17.4959 1.94848Z" stroke="#7BB20A" stroke-width="2" stroke-linecap="round" stroke-linejoin="round"/>
</svg>
